<?xml version="1.0" encoding="UTF-8" standalone="no"?>
<svg
   xmlns:dc="http://purl.org/dc/elements/1.1/"
   xmlns:cc="http://creativecommons.org/ns#"
   xmlns:rdf="http://www.w3.org/1999/02/22-rdf-syntax-ns#"
   xmlns:svg="http://www.w3.org/2000/svg"
   xmlns="http://www.w3.org/2000/svg"
   xmlns:sodipodi="http://sodipodi.sourceforge.net/DTD/sodipodi-0.dtd"
   xmlns:inkscape="http://www.inkscape.org/namespaces/inkscape"
   version="1.1"
   id="svg2"
   viewBox="0 0 637.79528 602.3622"
   height="170mm"
   width="180mm"
   inkscape:version="0.92.2 (5c3e80d, 2017-08-06)"
   sodipodi:docname="logo_ptj_farbe.svg">
  <sodipodi:namedview
     pagecolor="#ffffff"
     bordercolor="#666666"
     borderopacity="1"
     objecttolerance="10"
     gridtolerance="10"
     guidetolerance="10"
     inkscape:pageopacity="0"
     inkscape:pageshadow="2"
     inkscape:window-width="1538"
     inkscape:window-height="881"
     id="namedview14"
     showgrid="false"
     inkscape:zoom="0.59762351"
     inkscape:cx="-235.85232"
     inkscape:cy="579.8637"
     inkscape:window-x="1276"
     inkscape:window-y="120"
     inkscape:window-maximized="1"
     inkscape:current-layer="svg2"
     showguides="true"
     inkscape:guide-bbox="true">
    <sodipodi:guide
       position="263.38722,280.43495"
       orientation="0,1"
       id="guide4303"
       inkscape:locked="false" />
    <sodipodi:guide
       position="49.097423,596.72255"
       orientation="0,1"
       id="guide4309"
       inkscape:locked="false" />
    <sodipodi:guide
       position="19.91364,559.47031"
       orientation="0,1"
       id="guide4311"
       inkscape:locked="false" />
    <sodipodi:guide
       position="14.420222,565.82208"
       orientation="1,0"
       id="guide4313"
       inkscape:locked="false" />
  </sodipodi:namedview>
  <defs
     id="defs4">
    <clipPath
       id="clipPath4158"
       clipPathUnits="userSpaceOnUse">
      <path
         inkscape:connector-curvature="0"
         id="path4160"
         d="M 0,520.996 0,0 l 774.965,0 0,520.996" />
    </clipPath>
  </defs>
  <metadata
     id="metadata7">
    <rdf:RDF>
      <cc:Work
         rdf:about="">
        <dc:format>image/svg+xml</dc:format>
        <dc:type
           rdf:resource="http://purl.org/dc/dcmitype/StillImage" />
        <dc:title />
      </cc:Work>
    </rdf:RDF>
  </metadata>
  <g
     transform="matrix(4.5070602,0,0,-4.5070602,59.152729,277.34375)"
     inkscape:label="ink_ext_XXXXXX"
     id="g4150">
    <g
       transform="scale(0.1)"
       id="g4152">
      <g
         id="g4154">
        <g
           clip-path="url(#clipPath4158)"
           id="g4156">
          <path
             inkscape:connector-curvature="0"
             id="path4162"
             style="fill:#135ca1;fill-opacity:1;fill-rule:evenodd;stroke:none"
             d="m 463.461,179.504 c -30.684,0 -57.578,9.043 -80.645,27.129 -23.058,18.086 -34.593,39.14 -34.593,63.207 v 250.348 h 107.914 v -65.989 h 82.148 v -80.097 h -83.594 l 1.446,-76.801 c 0.234,-25.684 18.926,-38.539 56.054,-38.539 1.856,0 11.016,0.293 27.5,0.84 v -80.098 h -76.23" />
          <path
             inkscape:connector-curvature="0"
             id="path4164"
             style="fill:#135ca1;fill-opacity:1;fill-rule:evenodd;stroke:none"
             d="m 167.207,243.703 -0.684,0.039 c -2.898,0 -7.324,0.196 -13.25,0.586 -5.937,0.371 -10.468,0.567 -13.605,0.567 l 0.676,92.054 c 19.929,0 36.933,3.184 51.035,9.61 17.449,8.105 26.18,19.789 26.18,35.062 -0.243,13.195 -5.86,24.883 -16.836,35.059 -10.996,10.175 -24.227,15.273 -39.715,15.273 -14.348,0 -25.363,-5.078 -32.949,-15.254 -6.536,-8.679 -9.786,-19.414 -9.786,-32.226 V 99.1016 H 0.03125 V 363.809 c 0,47.207 13.41795,84.55 40.28125,112.031 29.082,30.098 70.9495,45.156 125.5275,45.156 49.035,0 88.762,-12.051 119.18,-36.113 31.574,-24.629 47.335,-57.442 47.335,-98.43 0,-42.492 -14.992,-76.926 -44.972,-103.234 -29.981,-26.332 -70.047,-39.516 -120.176,-39.516" />
          <path
             inkscape:connector-curvature="0"
             id="path4166"
             style="fill:#135ca1;fill-opacity:1;fill-rule:evenodd;stroke:none"
             d="m 585.766,178.879 -27.461,0.488 v 78.946 l 24.297,-0.469 c 8.925,-0.156 15.332,-0.254 19.179,-0.254 20.235,0 34.59,2.207 43.125,6.586 11.289,5.976 16.934,17.168 16.934,33.613 V 515.371 H 774.965 L 774.32,301.52 c 0,-49.497 -15.234,-83.149 -45.703,-101.024 -26.836,-15.66 -74.449,-22.867 -142.851,-21.617" />
          <path
             inkscape:connector-curvature="0"
             id="path4168"
             style="fill:#231f20;fill-opacity:1;fill-rule:evenodd;stroke:none"
             d="M 0,16.5625 V 70.8398 H 26.6016 V 66.2109 H 4.89453 V 49.1992 H 25.8008 V 44.5703 H 4.89453 V 16.5625 H 0" />
          <path
             inkscape:connector-curvature="0"
             id="path4170"
             style="fill:#231f20;fill-opacity:1;fill-rule:evenodd;stroke:none"
             d="m 49.1914,15.1172 c -2.3047,0 -4.5117,0.4492 -6.6523,1.3867 -2.1289,0.918 -4.0508,2.2656 -5.8008,3.9844 -1.6406,1.6211 -2.8711,3.5156 -3.7383,5.625 -0.832,2.1289 -1.2812,4.414 -1.2812,6.8359 0,2.3828 0.4687,4.668 1.3085,6.7969 0.8907,2.168 2.168,4.0625 3.7813,5.7031 1.6797,1.6992 3.543,2.9883 5.6914,3.8672 2.1406,0.8984 4.3555,1.3477 6.6914,1.3477 2.4102,0 4.6875,-0.4493 6.8438,-1.3477 2.1796,-0.8789 4.1211,-2.168 5.7734,-3.8672 1.7187,-1.6797 2.9766,-3.5742 3.8945,-5.7422 0.8789,-2.1289 1.3282,-4.3945 1.3282,-6.7578 0,-2.3828 -0.4493,-4.6289 -1.3086,-6.7773 -0.8985,-2.1289 -2.1563,-4.0235 -3.8282,-5.6836 -1.6992,-1.7188 -3.6406,-3.0664 -5.8593,-3.9844 -2.1954,-0.9375 -4.4532,-1.3867 -6.8438,-1.3867 z m 0.1445,4.2383 c 3.5938,0 6.6133,1.3086 9.0938,3.9062 2.4687,2.6172 3.7109,5.8399 3.7109,9.6094 0,3.8281 -1.2422,7.0312 -3.7109,9.6484 -2.4414,2.5977 -5.4688,3.8868 -9.0938,3.8868 -3.5429,0 -6.5625,-1.2891 -9.0234,-3.8868 -2.4805,-2.6172 -3.7187,-5.8203 -3.7187,-9.6484 0,-3.7695 1.2382,-6.9922 3.7187,-9.6094 2.4609,-2.5976 5.4805,-3.9062 9.0234,-3.9062" />
          <path
             inkscape:connector-curvature="0"
             id="path4172"
             style="fill:#231f20;fill-opacity:1;fill-rule:evenodd;stroke:none"
             d="m 80.4414,42.832 c 1.6602,2.8516 3.3008,4.8633 4.9024,6.0352 1.6093,1.1719 3.4648,1.7969 5.6132,1.7969 0.6368,0 1.2422,-0.0782 1.8868,-0.1758 0.664,-0.1367 1.3164,-0.3125 1.9335,-0.5469 l -1.457,-4.2773 c -0.4961,0.1367 -1.0039,0.2539 -1.5312,0.3711 -0.5196,0.0976 -1.0078,0.1367 -1.5157,0.1367 -2.7031,0 -5.0273,-1.2891 -6.9414,-3.8672 -1.914,-2.5586 -2.8906,-5.7617 -2.8906,-9.5899 V 16.5625 h -4.5039 v 32.8906 h 4.5039 V 42.832" />
          <path
             inkscape:connector-curvature="0"
             id="path4174"
             style="fill:#231f20;fill-opacity:1;fill-rule:evenodd;stroke:none"
             d="m 95.6641,22.4219 4.25,2.5 c 0.6909,-1.8555 1.7069,-3.2227 3.0859,-4.1797 1.328,-0.8984 2.988,-1.3867 4.949,-1.3867 1.906,0 3.438,0.4883 4.543,1.4648 1.153,0.9766 1.699,2.2852 1.699,3.9258 0,2.5391 -2.207,4.668 -6.66,6.4062 -0.461,0.2149 -0.832,0.3516 -1.093,0.4493 -3.411,1.3672 -5.801,2.7734 -7.1802,4.2187 -1.3672,1.4453 -2.0586,3.2227 -2.0586,5.3516 0,2.8125 1.0156,5.0781 2.9488,6.8945 1.954,1.7774 4.481,2.6563 7.586,2.6563 2.618,0 4.903,-0.5664 6.77,-1.7188 1.844,-1.1719 3.184,-2.832 4.082,-4.9805 l -4.16,-2.3242 c -0.5,1.5625 -1.379,2.7344 -2.571,3.5547 -1.218,0.8203 -2.695,1.2305 -4.433,1.2305 -1.551,0 -2.852,-0.4688 -3.875,-1.4063 -1.027,-0.8984 -1.516,-2.0703 -1.516,-3.457 0,-1.3477 0.489,-2.4805 1.504,-3.3594 1.016,-0.8984 3.086,-1.875 6.25,-2.9492 3.567,-1.25 5.969,-2.6172 7.219,-4.1211 1.23,-1.4648 1.836,-3.5156 1.836,-6.1328 0,-3.0273 -1.047,-5.4492 -3.195,-7.2461 -2.09,-1.7969 -4.969,-2.6953 -8.575,-2.6953 -2.761,0 -5.144,0.625 -7.1286,1.9141 -1.9726,1.2695 -3.418,3.0664 -4.2773,5.3906" />
          <path
             inkscape:connector-curvature="0"
             id="path4176"
             style="fill:#231f20;fill-opacity:1;fill-rule:evenodd;stroke:none"
             d="m 152.961,43.4375 c -1.504,1.0742 -3.137,1.8555 -4.836,2.3828 -1.719,0.5469 -3.477,0.8203 -5.301,0.8203 -4.023,0 -7.246,-1.3086 -9.66,-3.9258 -2.391,-2.5976 -3.594,-6.0937 -3.594,-10.4492 0,-3.8672 1.262,-7.0312 3.743,-9.5312 2.48,-2.5 5.652,-3.75 9.511,-3.75 1.766,0 3.543,0.3125 5.34,0.9375 1.789,0.6054 3.574,1.5429 5.324,2.7929 v -5.0195 c -1.621,-0.918 -3.359,-1.582 -5.293,-2.0312 -1.933,-0.4688 -4.015,-0.7032 -6.211,-0.7032 -4.961,0 -9.054,1.6407 -12.207,4.961 -3.183,3.2812 -4.777,7.5195 -4.777,12.6562 0,5.3711 1.652,9.7266 4.973,13.0664 3.3,3.3399 7.625,5.0196 12.918,5.0196 1.964,0 3.808,-0.1953 5.527,-0.586 1.73,-0.3711 3.273,-0.9375 4.609,-1.6406 l -0.066,-5" />
          <path
             inkscape:connector-curvature="0"
             id="path4178"
             style="fill:#231f20;fill-opacity:1;fill-rule:evenodd;stroke:none"
             d="M 161.594,16.5625 V 74.043 h 4.246 V 44.375 c 1.328,2.0703 2.969,3.6719 4.883,4.707 1.933,1.0352 4.14,1.5821 6.64,1.5821 3.711,0 6.582,-1.0352 8.645,-3.125 2.012,-2.0899 3.066,-4.961 3.066,-8.6524 V 16.5625 h -4.59 v 20.2734 c 0,3.3008 -0.683,5.7422 -2.023,7.3438 -1.348,1.582 -3.457,2.3828 -6.328,2.3828 -3.445,0 -5.985,-1.0352 -7.598,-3.1055 -1.64,-2.0507 -2.449,-5.3125 -2.449,-9.7461 V 16.5625 h -4.492" />
          <path
             inkscape:connector-curvature="0"
             id="path4180"
             style="fill:#231f20;fill-opacity:1;fill-rule:evenodd;stroke:none"
             d="M 204.941,49.4531 V 33.0078 c 0,-5 0.704,-8.5156 2.129,-10.5664 1.387,-2.0703 3.77,-3.0859 7.129,-3.0859 3.321,0 5.703,1.0351 7.16,3.125 1.426,2.0703 2.149,5.5859 2.149,10.5273 v 16.4453 h 4.512 V 30.6836 c 0,-5.1367 -1.184,-8.9844 -3.497,-11.6016 -2.343,-2.6562 -5.753,-3.9648 -10.234,-3.9648 -4.531,0 -7.98,1.3086 -10.332,3.9648 -2.336,2.6172 -3.516,6.4649 -3.516,11.6016 v 18.7695 h 4.5" />
          <path
             inkscape:connector-curvature="0"
             id="path4182"
             style="fill:#231f20;fill-opacity:1;fill-rule:evenodd;stroke:none"
             d="m 239.668,16.5625 v 32.8906 h 4.289 V 44.375 c 1.316,2.0703 2.938,3.6719 4.852,4.707 1.914,1.0352 4.14,1.5821 6.64,1.5821 3.692,0 6.574,-1.0352 8.653,-3.125 2.043,-2.0899 3.066,-4.961 3.066,-8.6524 V 16.5625 h -4.598 v 20.2734 c 0,3.3008 -0.664,5.7422 -2.023,7.3438 -1.375,1.582 -3.477,2.3828 -6.317,2.3828 -3.457,0 -5.988,-1.0352 -7.636,-3.1055 -1.621,-2.0507 -2.422,-5.3125 -2.422,-9.7461 V 16.5625 h -4.504" />
          <path
             inkscape:connector-curvature="0"
             id="path4184"
             style="fill:#231f20;fill-opacity:1;fill-rule:evenodd;stroke:none"
             d="m 291.602,46.4844 c -3.379,0 -6.036,-1.211 -7.997,-3.6524 -1.925,-2.4414 -2.89,-5.7812 -2.89,-10.0195 0,-4.2578 0.887,-7.5586 2.754,-9.9023 1.844,-2.3438 4.414,-3.5547 7.695,-3.5547 3.477,0 6.25,1.25 8.34,3.75 2.098,2.5 3.152,5.8593 3.152,10.0976 0,4.1602 -0.984,7.4024 -2.957,9.7657 -1.933,2.3242 -4.66,3.5156 -8.097,3.5156 z m 15.546,2.9687 V 22.2852 c 0,-4.3555 -0.117,-7.6563 -0.339,-9.9414 -0.254,-2.2657 -0.645,-3.96489 -1.133,-5.07817 C 304.543,4.82422 302.805,3.00781 300.48,1.79688 298.164,0.585938 295.227,0 291.652,0 c -4.316,0 -7.695,0.859375 -10.117,2.53906 -2.383,1.69922 -3.84,4.29688 -4.355,7.71484 h 5.633 c 0.363,-2.03124 1.339,-3.55468 2.871,-4.58984 1.554,-1.03515 3.683,-1.58203 6.347,-1.58203 2.004,0 3.821,0.3711 5.403,1.07422 1.609,0.72266 2.839,1.73828 3.64,2.98828 0.528,0.82031 0.899,1.75781 1.172,2.83207 0.215,1.0742 0.352,2.7343 0.352,4.9804 v 6.6797 C 301.563,20.293 300.039,18.457 298,17.1289 c -2.102,-1.3672 -4.473,-2.0117 -7.121,-2.0117 -4.578,0 -8.231,1.6211 -10.957,4.8242 -2.734,3.2031 -4.109,7.5195 -4.109,12.9297 0,5.3711 1.406,9.668 4.199,12.9102 2.781,3.2421 6.472,4.8828 11.074,4.8828 2.586,0 4.883,-0.6836 6.992,-2.0313 2.086,-1.3476 3.594,-3.125 4.52,-5.332 v 6.1523 h 4.55" />
          <path
             inkscape:connector-curvature="0"
             id="path4186"
             style="fill:#231f20;fill-opacity:1;fill-rule:evenodd;stroke:none"
             d="m 315.129,22.4219 4.277,2.5 c 0.684,-1.8555 1.739,-3.2227 3.055,-4.1797 1.379,-0.8984 3.019,-1.3867 4.973,-1.3867 1.902,0 3.437,0.4883 4.57,1.4648 1.113,0.9766 1.66,2.2852 1.66,3.9258 0,2.5391 -2.226,4.668 -6.652,6.4062 -0.438,0.2149 -0.789,0.3516 -1.082,0.4493 -3.399,1.3672 -5.821,2.7734 -7.18,4.2187 -1.367,1.4453 -2.07,3.2227 -2.07,5.3516 0,2.8125 0.996,5.0781 2.929,6.8945 1.993,1.7774 4.504,2.6563 7.618,2.6563 2.636,0 4.882,-0.5664 6.73,-1.7188 1.863,-1.1719 3.211,-2.832 4.09,-4.9805 l -4.168,-2.3242 c -0.5,1.5625 -1.359,2.7344 -2.57,3.5547 -1.18,0.8203 -2.645,1.2305 -4.383,1.2305 -1.582,0 -2.863,-0.4688 -3.887,-1.4063 -1.016,-0.8984 -1.516,-2.0703 -1.516,-3.457 0,-1.3477 0.481,-2.4805 1.516,-3.3594 0.965,-0.8984 3.055,-1.875 6.219,-2.9492 3.605,-1.25 5.996,-2.6172 7.219,-4.1211 1.238,-1.4648 1.863,-3.5156 1.863,-6.1328 0,-3.0273 -1.102,-5.4492 -3.211,-7.2461 -2.102,-1.7969 -4.981,-2.6953 -8.555,-2.6953 -2.765,0 -5.156,0.625 -7.129,1.9141 -2.004,1.2695 -3.449,3.0664 -4.316,5.3906" />
          <path
             inkscape:connector-curvature="0"
             id="path4188"
             style="fill:#231f20;fill-opacity:1;fill-rule:evenodd;stroke:none"
             d="m 341.934,16.5625 18.175,28.7891 h -16.875 v 4.1015 h 24.688 l -18.02,-28.8086 h 18.575 v -4.082 h -26.543" />
          <path
             inkscape:connector-curvature="0"
             id="path4190"
             style="fill:#231f20;fill-opacity:1;fill-rule:evenodd;stroke:none"
             d="m 403.363,32.8711 h -25.832 c 0.125,-4.2383 1.18,-7.5977 3.133,-10.0195 2.016,-2.4414 4.672,-3.6328 7.992,-3.6328 2.383,0 4.512,0.6445 6.309,1.9726 1.836,1.2891 3.301,3.2813 4.531,5.918 l 4.102,-2.2852 c -1.66,-3.3398 -3.692,-5.7812 -6.114,-7.3633 -2.398,-1.582 -5.332,-2.3437 -8.847,-2.3437 -4.766,0 -8.617,1.6211 -11.574,4.8437 -2.942,3.2032 -4.426,7.4414 -4.426,12.6954 0,5.371 1.484,9.707 4.386,13.0273 2.918,3.3203 6.77,4.9805 11.457,4.9805 4.493,0 8.145,-1.5235 10.84,-4.5899 2.715,-3.0469 4.043,-7.0898 4.043,-12.207 z m -5.293,3.8867 c -0.254,3.0078 -1.23,5.3711 -3.007,6.9922 -1.758,1.6602 -4.141,2.5 -7.149,2.5 -2.734,0 -5.019,-0.8594 -6.859,-2.5977 -1.875,-1.7187 -2.93,-4.0234 -3.242,-6.8945 h 20.257" />
          <path
             inkscape:connector-curvature="0"
             id="path4192"
             style="fill:#231f20;fill-opacity:1;fill-rule:evenodd;stroke:none"
             d="m 412.367,16.5625 v 32.8906 h 4.258 V 44.375 c 1.348,2.0703 2.988,3.6719 4.902,4.707 1.914,1.0352 4.121,1.5821 6.621,1.5821 3.672,0 6.582,-1.0352 8.633,-3.125 2.055,-2.0899 3.086,-4.961 3.086,-8.6524 V 16.5625 h -4.57 v 20.2734 c 0,3.3008 -0.684,5.7422 -2.051,7.3438 -1.367,1.582 -3.437,2.3828 -6.308,2.3828 -3.458,0 -5.997,-1.0352 -7.598,-3.1055 -1.68,-2.0507 -2.442,-5.3125 -2.442,-9.7461 V 16.5625 h -4.531" />
          <path
             inkscape:connector-curvature="0"
             id="path4194"
             style="fill:#231f20;fill-opacity:1;fill-rule:evenodd;stroke:none"
             d="m 452.211,45.5664 h -5.996 v 3.8867 h 5.996 v 13.5157 h 4.434 V 49.4531 h 6.543 v -3.8867 h -6.543 V 16.5625 h -4.434 v 29.0039" />
          <path
             inkscape:connector-curvature="0"
             id="path4196"
             style="fill:#231f20;fill-opacity:1;fill-rule:evenodd;stroke:none"
             d="m 474.027,42.832 c 1.68,2.8516 3.301,4.8633 4.903,6.0352 1.621,1.1719 3.457,1.7969 5.586,1.7969 0.644,0 1.289,-0.0782 1.953,-0.1758 0.625,-0.1367 1.289,-0.3125 1.914,-0.5469 l -1.465,-4.2773 c -0.508,0.1367 -0.996,0.2539 -1.543,0.3711 -0.508,0.0976 -1.035,0.1367 -1.523,0.1367 -2.696,0 -5.016,-1.2891 -6.934,-3.8672 -1.934,-2.5586 -2.891,-5.7617 -2.891,-9.5899 V 16.5625 h -4.511 v 32.8906 h 4.511 V 42.832" />
          <path
             inkscape:connector-curvature="0"
             id="path4198"
             style="fill:#231f20;fill-opacity:1;fill-rule:evenodd;stroke:none"
             d="M 497.406,49.4531 V 33.0078 c 0,-5 0.723,-8.5156 2.11,-10.5664 1.406,-2.0703 3.789,-3.0859 7.129,-3.0859 3.339,0 5.742,1.0351 7.168,3.125 1.406,2.0703 2.167,5.5859 2.167,10.5273 v 16.4453 h 4.512 V 30.6836 c 0,-5.1367 -1.172,-8.9844 -3.496,-11.6016 -2.324,-2.6562 -5.742,-3.9648 -10.254,-3.9648 -4.531,0 -7.949,1.3086 -10.312,3.9648 -2.325,2.6172 -3.555,6.4649 -3.555,11.6016 v 18.7695 h 4.531" />
          <path
             inkscape:connector-curvature="0"
             id="path4200"
             style="fill:#231f20;fill-opacity:1;fill-rule:evenodd;stroke:none"
             d="m 536.645,16.5625 h -4.512 v 32.8906 h 4.512 v -5.1562 c 1.054,2.0703 2.48,3.6523 4.257,4.7265 1.758,1.0938 3.789,1.6407 6.075,1.6407 2.382,0 4.394,-0.5664 6.093,-1.6602 1.684,-1.0937 2.973,-2.6953 3.887,-4.8047 1.27,2.168 2.871,3.7696 4.766,4.8438 1.875,1.0742 4.043,1.6211 6.543,1.6211 3.457,0 6.152,-1.0547 8.144,-3.1836 1.973,-2.0899 2.969,-5 2.969,-8.6719 V 16.5625 h -4.512 v 20.4297 c 0,3.2226 -0.664,5.625 -1.949,7.2656 -1.313,1.6211 -3.266,2.461 -5.863,2.461 -3.086,0 -5.371,-1.0352 -6.817,-3.086 -1.465,-2.0508 -2.187,-5.332 -2.187,-9.7656 V 16.5625 h -4.492 v 20.4297 c 0,3.3789 -0.664,5.8398 -1.891,7.3828 -1.25,1.543 -3.164,2.3438 -5.785,2.3438 -3.184,0 -5.508,-1.0547 -7.031,-3.125 -1.465,-2.0704 -2.207,-5.3125 -2.207,-9.7266 V 16.5625" />
          <path
             inkscape:connector-curvature="0"
             id="path4202"
             style="fill:#231f20;fill-opacity:1;fill-rule:evenodd;stroke:none"
             d="m 623.441,31.4258 v 39.414 h 4.864 V 28.2422 c 0,-4.3164 -0.938,-7.5781 -2.871,-9.7852 -1.914,-2.2461 -4.786,-3.3398 -8.496,-3.3398 -2.286,0 -4.317,0.4687 -6.036,1.4258 -1.777,0.957 -3.222,2.3633 -4.355,4.1992 l 3.437,3.1836 c 1.036,-1.4063 2.11,-2.4414 3.223,-3.1055 1.094,-0.664 2.285,-0.9961 3.574,-0.9961 2.387,0 4.102,0.8594 5.137,2.5977 1,1.7578 1.523,4.7461 1.523,9.0039" />
          <path
             inkscape:connector-curvature="0"
             id="path4204"
             style="fill:#231f20;fill-opacity:1;fill-rule:evenodd;stroke:none"
             d="m 643.773,60.6055 c 0,0.9765 0.332,1.8554 1.02,2.5586 0.68,0.7226 1.543,1.0937 2.5,1.0937 0.992,0 1.832,-0.3711 2.555,-1.0937 0.703,-0.7032 1.054,-1.5821 1.054,-2.5586 0,-1.0157 -0.312,-1.8555 -1.035,-2.5391 -0.683,-0.7031 -1.523,-1.0351 -2.574,-1.0351 -1.02,0 -1.875,0.3125 -2.523,0.996 -0.665,0.6641 -0.997,1.504 -0.997,2.5782 z m 12.852,0 c 0,0.9765 0.352,1.8554 1.074,2.5586 0.684,0.7226 1.524,1.0937 2.539,1.0937 0.957,0 1.797,-0.3711 2.481,-1.0937 0.664,-0.7032 1.015,-1.5821 1.015,-2.5586 0,-1.0352 -0.332,-1.875 -0.976,-2.5391 -0.664,-0.7226 -1.543,-1.0351 -2.52,-1.0351 -1.054,0 -1.933,0.3125 -2.578,1.0351 -0.683,0.6641 -1.035,1.5039 -1.035,2.5391 z M 644.457,49.4531 V 33.0078 c 0,-5 0.684,-8.5156 2.09,-10.5664 1.387,-2.0703 3.808,-3.0859 7.148,-3.0859 3.301,0 5.703,1.0351 7.168,3.125 1.407,2.0703 2.129,5.5859 2.129,10.5273 v 16.4453 h 4.512 V 30.6836 c 0,-5.1367 -1.152,-8.9844 -3.457,-11.6016 -2.363,-2.6562 -5.781,-3.9648 -10.274,-3.9648 -4.531,0 -7.968,1.3086 -10.312,3.9648 -2.363,2.6172 -3.516,6.4649 -3.516,11.6016 v 18.7695 h 4.512" />
          <path
             inkscape:connector-curvature="0"
             id="path4206"
             style="fill:#231f20;fill-opacity:1;fill-rule:evenodd;stroke:none"
             d="m 679.477,16.5625 h 4.64844 V 74.043 H 679.477 Z" />
          <path
             inkscape:connector-curvature="0"
             id="path4208"
             style="fill:#231f20;fill-opacity:1;fill-rule:evenodd;stroke:none"
             d="m 696.336,16.5625 v 32.8906 h 4.644 V 16.5625 Z m -1.137,45.7227 c 0,0.9765 0.332,1.7773 1.016,2.4804 0.664,0.6641 1.504,1.0157 2.441,1.0157 0.957,0 1.797,-0.3516 2.481,-1.0157 0.683,-0.7031 1.015,-1.5039 1.015,-2.4804 0,-1.0157 -0.332,-1.8164 -0.976,-2.5 -0.645,-0.6641 -1.504,-1.0157 -2.52,-1.0157 -0.957,0 -1.797,0.3516 -2.461,1.0157 -0.664,0.6836 -0.996,1.4843 -0.996,2.5" />
          <path
             inkscape:connector-curvature="0"
             id="path4210"
             style="fill:#231f20;fill-opacity:1;fill-rule:evenodd;stroke:none"
             d="m 738.246,43.4375 c -1.523,1.0742 -3.16,1.8555 -4.863,2.3828 -1.715,0.5469 -3.477,0.8203 -5.274,0.8203 -4.043,0 -7.265,-1.3086 -9.668,-3.9258 -2.398,-2.5976 -3.593,-6.0937 -3.593,-10.4492 0,-3.8672 1.25,-7.0312 3.75,-9.5312 2.461,-2.5 5.605,-3.75 9.511,-3.75 1.739,0 3.516,0.3125 5.352,0.9375 1.777,0.6054 3.555,1.5429 5.273,2.7929 v -5.0195 c -1.562,-0.918 -3.359,-1.582 -5.273,-2.0312 -1.953,-0.4688 -4.004,-0.7032 -6.207,-0.7032 -4.984,0 -9.047,1.6407 -12.211,4.961 -3.164,3.2812 -4.785,7.5195 -4.785,12.6562 0,5.3711 1.68,9.7266 4.98,13.0664 3.321,3.3399 7.637,5.0196 12.95,5.0196 1.933,0 3.769,-0.1953 5.507,-0.586 1.723,-0.3711 3.262,-0.9375 4.61,-1.6406 l -0.059,-5" />
          <path
             inkscape:connector-curvature="0"
             id="path4212"
             style="fill:#231f20;fill-opacity:1;fill-rule:evenodd;stroke:none"
             d="M 746.84,16.5625 V 74.043 h 4.316 V 44.375 c 1.289,2.0703 2.91,3.6719 4.848,4.707 1.914,1.0352 4.117,1.5821 6.617,1.5821 3.692,0 6.563,-1.0352 8.633,-3.125 2.051,-2.0899 3.086,-4.961 3.086,-8.6524 V 16.5625 h -4.57 v 20.2734 c 0,3.3008 -0.684,5.7422 -2.051,7.3438 -1.348,1.582 -3.457,2.3828 -6.309,2.3828 -3.476,0 -5.992,-1.0352 -7.617,-3.1055 -1.641,-2.0507 -2.441,-5.3125 -2.441,-9.7461 V 16.5625 h -4.512" />
          <path
             inkscape:connector-curvature="0"
             id="path4214"
             style="fill:#231f20;fill-opacity:1;fill-rule:evenodd;stroke:none"
             d="m 200.793,128.281 h 3.406 c 5.977,0 10.02,0.742 12.102,2.305 2.07,1.543 3.105,4.258 3.105,8.105 0,1.622 -0.234,3.125 -0.722,4.524 -0.45,1.348 -1.164,2.558 -2.11,3.652 -0.969,1.113 -2.285,1.895 -3.937,2.324 -1.668,0.45 -4.481,0.68 -8.438,0.68 h -3.406 z M 195.859,99.1016 V 154.27 h 9.934 c 3.953,0 6.797,-0.215 8.652,-0.625 1.856,-0.43 3.457,-1.153 4.825,-2.11 1.718,-1.25 3.035,-2.988 3.984,-5.176 0.945,-2.168 1.414,-4.621 1.414,-7.277 0,-5.234 -1.473,-9.082 -4.363,-11.543 -2.942,-2.441 -7.5,-3.652 -13.782,-3.652 h -5.73 V 99.1016 h -4.934" />
          <path
             inkscape:connector-curvature="0"
             id="path4216"
             style="fill:#231f20;fill-opacity:1;fill-rule:evenodd;stroke:none"
             d="m 235.293,125.82 c 1.699,2.871 3.34,4.922 4.953,6.133 1.629,1.192 3.535,1.797 5.711,1.797 0.637,0 1.262,-0.078 1.934,-0.195 0.683,-0.137 1.308,-0.293 1.964,-0.528 l -1.503,-4.355 c -0.489,0.137 -1.008,0.273 -1.543,0.351 -0.52,0.118 -1.067,0.176 -1.536,0.176 -2.753,0 -5.117,-1.328 -7.058,-3.926 -1.945,-2.597 -2.922,-5.859 -2.922,-9.746 V 99.1016 h -4.59 V 132.52 h 4.59 v -6.7" />
          <path
             inkscape:connector-curvature="0"
             id="path4218"
             style="fill:#231f20;fill-opacity:1;fill-rule:evenodd;stroke:none"
             d="m 269.387,97.6563 c -2.356,0 -4.61,0.4492 -6.789,1.4062 -2.137,0.9375 -4.11,2.2855 -5.848,4.0425 -1.652,1.661 -2.93,3.575 -3.801,5.723 -0.898,2.149 -1.308,4.473 -1.308,6.934 0,2.422 0.429,4.746 1.328,6.914 0.898,2.207 2.199,4.121 3.828,5.781 1.691,1.719 3.625,3.027 5.773,3.926 2.176,0.898 4.422,1.367 6.817,1.367 2.429,0 4.734,-0.469 6.922,-1.367 2.179,-0.899 4.14,-2.207 5.851,-3.926 1.707,-1.66 3.016,-3.633 3.934,-5.82 0.898,-2.168 1.367,-4.473 1.367,-6.875 0,-2.403 -0.449,-4.707 -1.367,-6.875 -0.86,-2.168 -2.18,-4.082 -3.867,-5.782 -1.719,-1.757 -3.719,-3.105 -5.918,-4.0425 -2.215,-0.957 -4.532,-1.4062 -6.922,-1.4062 z m 0.117,4.2967 c 3.641,0 6.68,1.328 9.199,3.985 2.527,2.636 3.797,5.898 3.797,9.746 0,3.886 -1.27,7.148 -3.758,9.785 -2.5,2.636 -5.578,3.945 -9.238,3.945 -3.606,0 -6.66,-1.309 -9.172,-3.945 -2.48,-2.637 -3.738,-5.899 -3.738,-9.785 0,-3.848 1.258,-7.11 3.738,-9.746 2.512,-2.657 5.566,-3.985 9.172,-3.985" />
          <path
             inkscape:connector-curvature="0"
             id="path4220"
             style="fill:#231f20;fill-opacity:1;fill-rule:evenodd;stroke:none"
             d="M 296.719,82.3047 V 132.52 h 4.726 V 82.3047 Z m -1.121,63.2733 c 0,0.957 0.34,1.793 1.004,2.481 0.703,0.703 1.543,1.054 2.5,1.054 0.976,0 1.828,-0.351 2.5,-1.054 0.734,-0.688 1.074,-1.524 1.074,-2.481 0,-1.015 -0.34,-1.875 -1.024,-2.543 -0.675,-0.711 -1.535,-1.043 -2.55,-1.043 -0.965,0 -1.805,0.332 -2.508,1.043 -0.656,0.668 -0.996,1.528 -0.996,2.543" />
          <path
             inkscape:connector-curvature="0"
             id="path4222"
             style="fill:#231f20;fill-opacity:1;fill-rule:evenodd;stroke:none"
             d="m 341.816,115.684 h -26.191 c 0.129,-4.317 1.191,-7.715 3.203,-10.157 2.031,-2.48 4.68,-3.711 8.027,-3.711 2.481,0 4.602,0.664 6.458,2.012 1.804,1.309 3.328,3.32 4.539,6.016 l 4.191,-2.344 c -1.68,-3.379 -3.762,-5.879 -6.184,-7.461 -2.441,-1.582 -5.437,-2.3827 -9.004,-2.3827 -4.832,0 -8.71,1.6406 -11.707,4.9027 -2.988,3.261 -4.464,7.578 -4.464,12.89 0,5.469 1.445,9.883 4.425,13.242 2.969,3.379 6.825,5.059 11.621,5.059 4.559,0 8.192,-1.562 10.958,-4.648 2.761,-3.106 4.128,-7.227 4.128,-12.403 z m -5.39,3.964 c -0.235,3.047 -1.238,5.43 -3.008,7.09 -1.805,1.68 -4.207,2.539 -7.266,2.539 -2.781,0 -5.105,-0.898 -6.961,-2.656 -1.914,-1.738 -2.968,-4.062 -3.273,-6.973 h 20.508" />
          <path
             inkscape:connector-curvature="0"
             id="path4224"
             style="fill:#231f20;fill-opacity:1;fill-rule:evenodd;stroke:none"
             d="m 350.91,99.1016 v 58.4104 h 4.52 v -39.797 l 16.457,14.805 h 6.336 l -17.657,-15 18.965,-18.4184 h -6.316 L 355.43,116.367 V 99.1016 h -4.52" />
          <path
             inkscape:connector-curvature="0"
             id="path4226"
             style="fill:#231f20;fill-opacity:1;fill-rule:evenodd;stroke:none"
             d="m 386.449,128.574 h -6.117 v 3.946 h 6.117 v 13.742 h 4.473 V 132.52 h 6.621 v -3.946 h -6.621 V 99.1016 h -4.473 v 29.4724" />
          <path
             inkscape:connector-curvature="0"
             id="path4228"
             style="fill:#231f20;fill-opacity:1;fill-rule:evenodd;stroke:none"
             d="m 404.926,128.574 h -6.09 v 3.946 h 6.09 v 13.742 h 4.492 V 132.52 h 6.641 v -3.946 h -6.641 V 99.1016 h -4.492 v 29.4724" />
          <path
             inkscape:connector-curvature="0"
             id="path4230"
             style="fill:#231f20;fill-opacity:1;fill-rule:evenodd;stroke:none"
             d="m 426.977,125.82 c 1.679,2.871 3.359,4.922 4.98,6.133 1.602,1.192 3.516,1.797 5.664,1.797 0.645,0 1.309,-0.078 1.953,-0.195 0.664,-0.137 1.309,-0.293 1.953,-0.528 l -1.464,-4.355 c -0.508,0.137 -1.036,0.273 -1.543,0.351 -0.567,0.118 -1.075,0.176 -1.543,0.176 -2.793,0 -5.157,-1.328 -7.071,-3.926 -1.933,-2.597 -2.929,-5.859 -2.929,-9.746 V 99.1016 h -4.571 V 132.52 h 4.571 v -6.7" />
          <path
             inkscape:connector-curvature="0"
             id="path4232"
             style="fill:#231f20;fill-opacity:1;fill-rule:evenodd;stroke:none"
             d="m 450.492,143.84 c 0,1.031 0.352,1.894 1.055,2.637 0.683,0.722 1.543,1.074 2.519,1.074 1.02,0 1.875,-0.352 2.579,-1.074 0.742,-0.743 1.093,-1.606 1.093,-2.637 0,-1.008 -0.351,-1.887 -1.074,-2.59 -0.664,-0.684 -1.543,-1.016 -2.598,-1.016 -1.015,0 -1.875,0.332 -2.578,0.996 -0.644,0.645 -0.996,1.543 -0.996,2.61 z m 13.028,0 c 0,1.031 0.371,1.894 1.074,2.637 0.742,0.722 1.582,1.074 2.558,1.074 1.036,0 1.856,-0.352 2.578,-1.074 0.684,-0.743 1.036,-1.606 1.036,-2.637 0,-1.047 -0.352,-1.926 -1.016,-2.61 -0.664,-0.664 -1.523,-0.996 -2.598,-0.996 -1.015,0 -1.875,0.332 -2.578,0.996 -0.722,0.684 -1.054,1.563 -1.054,2.61 z m 6.914,-44.7384 v 6.1134 c -1.075,-2.461 -2.598,-4.336 -4.571,-5.6252 -1.972,-1.3085 -4.297,-1.9335 -6.992,-1.9335 -4.746,0 -8.516,1.6406 -11.445,4.9217 -2.871,3.281 -4.317,7.637 -4.317,13.008 0,5.352 1.426,9.727 4.278,13.086 2.851,3.398 6.543,5.078 11.054,5.078 2.793,0 5.235,-0.605 7.266,-1.875 2.051,-1.211 3.633,-3.066 4.727,-5.469 v 6.114 h 4.589 V 99.1016 Z m -22.227,16.3474 c 0,-4.336 0.957,-7.636 2.871,-9.98 1.934,-2.324 4.688,-3.516 8.262,-3.516 3.496,0 6.191,1.289 8.203,3.828 1.992,2.559 3.008,6.074 3.008,10.528 0,4.101 -1.016,7.324 -2.988,9.668 -1.973,2.363 -4.708,3.535 -8.145,3.535 -3.457,0 -6.172,-1.25 -8.184,-3.75 -2.031,-2.5 -3.027,-5.938 -3.027,-10.313" />
          <path
             inkscape:connector-curvature="0"
             id="path4234"
             style="fill:#231f20;fill-opacity:1;fill-rule:evenodd;stroke:none"
             d="m 500.121,129.512 c -3.418,0 -6.113,-1.25 -8.086,-3.711 -1.972,-2.481 -2.949,-5.879 -2.949,-10.215 0,-4.297 0.918,-7.617 2.773,-10.02 1.914,-2.382 4.493,-3.613 7.832,-3.613 3.497,0 6.348,1.27 8.438,3.809 2.129,2.539 3.207,5.957 3.207,10.254 0,4.238 -0.981,7.519 -3.012,9.922 -1.972,2.363 -4.707,3.574 -8.203,3.574 z m 15.762,3.008 v -27.618 c 0,-4.394 -0.098,-7.734 -0.352,-10.0387 -0.234,-2.3242 -0.625,-4.0625 -1.152,-5.1758 -1.152,-2.4805 -2.891,-4.3359 -5.274,-5.5664 -2.363,-1.2109 -5.312,-1.8164 -8.906,-1.8164 -4.375,0 -7.812,0.8594 -10.273,2.5781 -2.442,1.7188 -3.906,4.336 -4.434,7.832 h 5.723 c 0.351,-2.0507 1.328,-3.6132 2.93,-4.6679 1.562,-1.0547 3.71,-1.5821 6.425,-1.5821 2.032,0 3.848,0.3711 5.489,1.0938 1.601,0.7227 2.832,1.7383 3.671,3.0078 0.547,0.8203 0.918,1.7969 1.153,2.8711 0.254,1.1133 0.351,2.793 0.351,5.0586 v 6.7769 c -1.015,-2.363 -2.558,-4.238 -4.648,-5.5855 -2.09,-1.3672 -4.512,-2.0312 -7.227,-2.0312 -4.629,0 -8.3,1.621 -11.093,4.8827 -2.754,3.242 -4.141,7.637 -4.141,13.145 0,5.429 1.387,9.824 4.238,13.105 2.832,3.32 6.563,4.961 11.231,4.961 2.617,0 4.961,-0.684 7.09,-2.07 2.129,-1.348 3.671,-3.164 4.55,-5.41 v 6.25 h 4.649" />
          <path
             inkscape:connector-curvature="0"
             id="path4236"
             style="fill:#231f20;fill-opacity:1;fill-rule:evenodd;stroke:none"
             d="M 556.004,115.684 H 529.77 c 0.136,-4.317 1.21,-7.715 3.222,-10.157 2.012,-2.48 4.688,-3.711 8.067,-3.711 2.445,0 4.55,0.664 6.406,2.012 1.816,1.309 3.359,3.32 4.57,6.016 l 4.199,-2.344 c -1.699,-3.379 -3.75,-5.879 -6.211,-7.461 -2.437,-1.582 -5.429,-2.3827 -8.964,-2.3827 -4.844,0 -8.75,1.6406 -11.739,4.9027 -3.007,3.261 -4.492,7.578 -4.492,12.89 0,5.469 1.485,9.883 4.453,13.242 2.973,3.379 6.817,5.059 11.621,5.059 4.551,0 8.223,-1.562 10.957,-4.648 2.774,-3.106 4.145,-7.227 4.145,-12.403 z m -5.414,3.964 c -0.215,3.047 -1.25,5.43 -3.027,7.09 -1.778,1.68 -4.18,2.539 -7.266,2.539 -2.774,0 -5.078,-0.898 -6.953,-2.656 -1.875,-1.738 -2.969,-4.062 -3.242,-6.973 h 20.488" />
          <path
             inkscape:connector-curvature="0"
             id="path4238"
             style="fill:#231f20;fill-opacity:1;fill-rule:evenodd;stroke:none"
             d="m 569.613,125.82 c 1.7,2.871 3.36,4.922 4.961,6.133 1.66,1.192 3.535,1.797 5.723,1.797 0.625,0 1.25,-0.078 1.914,-0.195 0.664,-0.137 1.348,-0.293 1.973,-0.528 l -1.504,-4.355 c -0.489,0.137 -1.012,0.273 -1.543,0.351 -0.508,0.118 -1.035,0.176 -1.543,0.176 -2.735,0 -5.117,-1.328 -7.051,-3.926 -1.953,-2.597 -2.93,-5.859 -2.93,-9.746 V 99.1016 h -4.55 V 132.52 h 4.55 v -6.7" />
          <path
             inkscape:connector-curvature="0"
             id="path4240"
             style="fill:#231f20;fill-opacity:1;fill-rule:evenodd;stroke:none"
             d="m 621.527,114.199 v 40.071 h 4.961 v -43.313 c 0,-4.355 -0.996,-7.676 -2.968,-9.922 -1.934,-2.2655 -4.825,-3.3787 -8.614,-3.3787 -2.304,0 -4.355,0.4687 -6.133,1.4257 -1.777,0.977 -3.242,2.402 -4.375,4.258 l 3.457,3.262 c 1.055,-1.426 2.149,-2.481 3.262,-3.164 1.137,-0.665 2.324,-0.997 3.613,-0.997 2.461,0 4.18,0.879 5.215,2.637 1.059,1.758 1.582,4.824 1.582,9.121" />
          <path
             inkscape:connector-curvature="0"
             id="path4242"
             style="fill:#231f20;fill-opacity:1;fill-rule:evenodd;stroke:none"
             d="m 642.094,143.84 c 0,1.031 0.312,1.894 1.015,2.637 0.704,0.722 1.543,1.074 2.539,1.074 0.997,0 1.856,-0.352 2.579,-1.074 0.722,-0.743 1.074,-1.606 1.074,-2.637 0,-1.008 -0.352,-1.887 -1.035,-2.59 -0.723,-0.684 -1.563,-1.016 -2.618,-1.016 -1.015,0 -1.894,0.332 -2.578,0.996 -0.664,0.645 -0.976,1.543 -0.976,2.61 z m 13.027,0 c 0,1.031 0.352,1.894 1.055,2.637 0.722,0.722 1.562,1.074 2.578,1.074 1,0 1.836,-0.352 2.519,-1.074 0.723,-0.743 1.055,-1.606 1.055,-2.637 0,-1.047 -0.332,-1.926 -1.015,-2.61 -0.665,-0.664 -1.504,-0.996 -2.559,-0.996 -1.035,0 -1.934,0.332 -2.617,0.996 -0.664,0.684 -1.016,1.563 -1.016,2.61 z m -12.363,-11.32 v -16.7 c 0,-5.078 0.703,-8.652 2.129,-10.742 1.449,-2.07 3.867,-3.125 7.246,-3.125 3.359,0 5.785,1.055 7.265,3.184 1.465,2.109 2.168,5.664 2.168,10.683 v 16.7 h 4.59 v -19.082 c 0,-5.176 -1.152,-9.122 -3.554,-11.778 -2.344,-2.6756 -5.821,-4.0037 -10.391,-4.0037 -4.59,0 -8.086,1.3281 -10.449,4.0037 -2.403,2.656 -3.574,6.602 -3.574,11.778 v 19.082 h 4.57" />
          <path
             inkscape:connector-curvature="0"
             id="path4244"
             style="fill:#231f20;fill-opacity:1;fill-rule:evenodd;stroke:none"
             d="m 678.188,99.1016 h 4.76563 v 58.4102 H 678.188 Z" />
          <path
             inkscape:connector-curvature="0"
             id="path4246"
             style="fill:#231f20;fill-opacity:1;fill-rule:evenodd;stroke:none"
             d="M 695.258,99.1016 V 132.52 h 4.746 V 99.1016 Z m -1.153,46.4764 c 0,0.957 0.333,1.793 1.036,2.481 0.703,0.703 1.543,1.054 2.48,1.054 0.977,0 1.797,-0.351 2.52,-1.054 0.722,-0.688 1.054,-1.524 1.054,-2.481 0,-1.015 -0.332,-1.875 -1.015,-2.543 -0.684,-0.711 -1.524,-1.043 -2.559,-1.043 -0.976,0 -1.797,0.332 -2.48,1.043 -0.703,0.668 -1.036,1.528 -1.036,2.543" />
          <path
             inkscape:connector-curvature="0"
             id="path4248"
             style="fill:#231f20;fill-opacity:1;fill-rule:evenodd;stroke:none"
             d="m 737.699,126.406 c -1.543,1.094 -3.164,1.895 -4.902,2.422 -1.738,0.567 -3.516,0.84 -5.371,0.84 -4.082,0 -7.34,-1.328 -9.766,-3.984 -2.441,-2.657 -3.652,-6.192 -3.652,-10.606 0,-3.926 1.25,-7.148 3.75,-9.687 2.539,-2.539 5.762,-3.809 9.668,-3.809 1.797,0 3.617,0.332 5.429,0.957 1.797,0.625 3.594,1.582 5.352,2.832 v -5.098 c -1.602,-0.9175 -3.379,-1.6207 -5.332,-2.0894 -1.973,-0.4492 -4.062,-0.6836 -6.289,-0.6836 -5.059,0 -9.199,1.6602 -12.402,5.02 -3.204,3.339 -4.864,7.636 -4.864,12.851 0,5.449 1.7,9.883 5.078,13.281 3.34,3.399 7.715,5.098 13.106,5.098 1.992,0 3.848,-0.215 5.625,-0.586 1.719,-0.371 3.262,-0.937 4.648,-1.68 l -0.078,-5.078" />
          <path
             inkscape:connector-curvature="0"
             id="path4250"
             style="fill:#231f20;fill-opacity:1;fill-rule:evenodd;stroke:none"
             d="m 746.391,99.1016 v 58.4104 h 4.316 v -30.168 c 1.387,2.129 3.008,3.73 4.941,4.804 1.973,1.055 4.18,1.602 6.719,1.602 3.77,0 6.68,-1.055 8.789,-3.164 2.071,-2.109 3.125,-5.039 3.125,-8.809 V 99.1016 h -4.668 v 20.6054 c 0,3.359 -0.683,5.84 -2.05,7.441 -1.368,1.622 -3.516,2.442 -6.387,2.442 -3.516,0 -6.09,-1.055 -7.735,-3.164 -1.66,-2.09 -2.461,-5.391 -2.461,-9.883 V 99.1016 h -4.589" />
        </g>
      </g>
    </g>
  </g>
</svg>

