<?xml version="1.0" encoding="UTF-8" standalone="no"?>
<!-- Created with Inkscape (http://www.inkscape.org/) -->

<svg
   xmlns:dc="http://purl.org/dc/elements/1.1/"
   xmlns:cc="http://creativecommons.org/ns#"
   xmlns:rdf="http://www.w3.org/1999/02/22-rdf-syntax-ns#"
   xmlns:svg="http://www.w3.org/2000/svg"
   xmlns="http://www.w3.org/2000/svg"
   xmlns:sodipodi="http://sodipodi.sourceforge.net/DTD/sodipodi-0.dtd"
   xmlns:inkscape="http://www.inkscape.org/namespaces/inkscape"
   width="397.33105mm"
   height="69.193405mm"
   viewBox="0 0 1407.8659 245.17348"
   id="svg2"
   version="1.1"
   inkscape:version="0.91 r13725"
   sodipodi:docname="Uni-Bremen_svg.svg">
  <defs
     id="defs4" />
  <sodipodi:namedview
     id="base"
     pagecolor="#ffffff"
     bordercolor="#666666"
     borderopacity="1.0"
     inkscape:pageopacity="0.0"
     inkscape:pageshadow="2"
     inkscape:zoom="0.7"
     inkscape:cx="550.07745"
     inkscape:cy="466.47294"
     inkscape:document-units="px"
     inkscape:current-layer="layer1"
     showgrid="false"
     inkscape:window-width="1920"
     inkscape:window-height="1017"
     inkscape:window-x="1912"
     inkscape:window-y="-8"
     inkscape:window-maximized="1"
     fit-margin-top="0"
     fit-margin-left="0"
     fit-margin-right="0"
     fit-margin-bottom="0" />
  <metadata
     id="metadata7">
    <rdf:RDF>
      <cc:Work
         rdf:about="">
        <dc:format>image/svg+xml</dc:format>
        <dc:type
           rdf:resource="http://purl.org/dc/dcmitype/StillImage" />
        <dc:title></dc:title>
      </cc:Work>
    </rdf:RDF>
  </metadata>
  <g
     inkscape:label="Ebene 1"
     inkscape:groupmode="layer"
     id="layer1"
     transform="translate(361.07586,-696.11729)">
    <g
       id="g4162">
      <path
         style="font-style:normal;font-variant:normal;font-weight:normal;font-stretch:normal;letter-spacing:normal;word-spacing:normal;text-anchor:start;fill:#000000;fill-opacity:1;fill-rule:nonzero;stroke:#000000;stroke-width:0;stroke-linecap:butt;stroke-linejoin:miter;stroke-miterlimit:10.43299961;stroke-dasharray:none;stroke-dashoffset:0;stroke-opacity:1"
         inkscape:connector-curvature="0"
         d="m -47.927854,762.96691 15.6249,0 0,51.99967 c 0,11.99367 0.749995,25.87108 20.999865,25.87108 20.2498708,0 20.999866,-13.87741 20.999866,-25.87108 l 0,-51.99967 15.6249,0 0,57.12339 c 0,22.8711 -14.624906,34.24728 -36.624766,34.24728 -21.999859,0 -36.624765,-11.37618 -36.624765,-34.24728 z"
         id="path4143" />
      <path
         style="font-style:normal;font-variant:normal;font-weight:normal;font-stretch:normal;letter-spacing:normal;word-spacing:normal;text-anchor:start;fill:#000000;fill-opacity:1;fill-rule:nonzero;stroke:#000000;stroke-width:0;stroke-linecap:butt;stroke-linejoin:miter;stroke-miterlimit:10.43299961;stroke-dasharray:none;stroke-dashoffset:0;stroke-opacity:1"
         inkscape:connector-curvature="0"
         d="m 41.821571,787.59175 13.499914,0 0,9.49994 0.249998,0.25 c 4.249973,-7.12495 11.624926,-11.49993 20.124872,-11.49993 13.99991,0 22.874853,7.49996 22.874853,21.99986 l 0,44.37222 -14.249909,0 0,-40.62224 c -0.249998,-10.12494 -4.249972,-14.49991 -12.624919,-14.49991 -9.499939,0 -15.6249,7.49995 -15.6249,16.99989 l 0,38.12226 -14.249909,0 z"
         id="path4145" />
      <polygon
         transform="matrix(1.249992,0,0,-1.249992,-361.07585,941.29077)"
         style="font-style:normal;font-variant:normal;font-weight:normal;font-stretch:normal;letter-spacing:normal;word-spacing:normal;text-anchor:start;fill:#000000;fill-opacity:1;fill-rule:nonzero;stroke:#000000;stroke-width:0;stroke-linecap:butt;stroke-linejoin:miter;stroke-miterlimit:10.43299961;stroke-dasharray:none;stroke-dashoffset:0;stroke-opacity:1"
         points="391.82,131.86 391.82,142.66 380.42,142.66 380.42,131.86 "
         id="polygon4147" />
      <polygon
         transform="matrix(1.249992,0,0,-1.249992,-361.07585,941.29077)"
         style="font-style:normal;font-variant:normal;font-weight:normal;font-stretch:normal;letter-spacing:normal;word-spacing:normal;text-anchor:start;fill:#000000;fill-opacity:1;fill-rule:nonzero;stroke:#000000;stroke-width:0;stroke-linecap:butt;stroke-linejoin:miter;stroke-miterlimit:10.43299961;stroke-dasharray:none;stroke-dashoffset:0;stroke-opacity:1"
         points="391.82,71.262 391.82,122.96 380.42,122.96 380.42,71.262 "
         id="polygon4149" />
      <polygon
         transform="matrix(1.249992,0,0,-1.249992,-361.07585,941.29077)"
         style="font-style:normal;font-variant:normal;font-weight:normal;font-stretch:normal;letter-spacing:normal;word-spacing:normal;text-anchor:start;fill:#000000;fill-opacity:1;fill-rule:nonzero;stroke:#000000;stroke-width:0;stroke-linecap:butt;stroke-linejoin:miter;stroke-miterlimit:10.43299961;stroke-dasharray:none;stroke-dashoffset:0;stroke-opacity:1"
         points="411.92,122.96 425.02,83.262 425.22,83.262 437.82,122.96 449.62,122.96 431.12,71.262 418.32,71.262 399.52,122.96 "
         id="polygon4151" />
      <path
         d="m 221.19542,814.21658 0.05,-0.89999 0.0875,-0.8875 0.125,-0.86249 0.1625,-0.84999 0.2,-0.8375 0.2375,-0.82499 0.2625,-0.8 0.29999,-0.77499 0.325,-0.7625 0.3625,-0.73749 0.4,-0.725 0.42499,-0.68749 0.45,-0.675 0.4875,-0.6375 0.5125,-0.62499 0.54999,-0.5875 0.5625,-0.5625 0.59999,-0.53749 0.625,-0.5 0.65,-0.475 0.67499,-0.43749 0.7,-0.4125 0.72499,-0.3625 0.75,-0.35 0.77499,-0.29999 0.7875,-0.2625 0.82499,-0.225 0.8375,-0.1875 0.84999,-0.15 0.8875,-0.1 0.88749,-0.075 0.92499,-0.0125 c 9.62494,0 15.7499,8.12495 16.2499,17.12489 z m 47.4997,9.36994 0.175,-1.81249 0.0875,-1.80498 0.0125,-1.79124 -0.075,-1.77624 -0.15,-1.75999 -0.2375,-1.73749 -0.325,-1.71249 -0.38749,-1.67499 -0.475,-1.64999 -0.55,-1.62499 -0.61249,-1.57499 -0.7,-1.53749 -0.76249,-1.49999 -0.8375,-1.43749 -0.91249,-1.39999 -0.975,-1.34999 -1.03749,-1.28749 -1.09999,-1.22499 -1.175,-1.1625 -1.23749,-1.08749 -1.28749,-1.03749 -1.36249,-0.95 -1.41249,-0.87499 -1.47499,-0.8 -1.52499,-0.72499 -1.57499,-0.625 -1.63749,-0.54999 -1.69999,-0.45 -1.73749,-0.3625 -1.78749,-0.25 -1.83749,-0.1625 -1.88749,-0.05 c -19.24987,0 -31.2498,15.7499 -31.2498,34.12104 0,19.87362 11.37493,33.99978 31.6248,33.99978 14.12491,0 26.12484,-7.8762 29.24982,-22.00236 l -13.49992,0 c -2.49998,7.1287 -7.49995,10.75243 -15.7499,10.75243 -11.87492,0 -17.37489,-8.99994 -17.37489,-19.12613 z"
         style="font-style:normal;font-variant:normal;font-weight:normal;font-stretch:normal;letter-spacing:normal;word-spacing:normal;text-anchor:start;fill:#000000;fill-opacity:1;fill-rule:nonzero;stroke:#000000;stroke-width:0;stroke-linecap:butt;stroke-linejoin:miter;stroke-miterlimit:10.43299961;stroke-dasharray:none;stroke-dashoffset:0;stroke-opacity:1"
         id="path4155"
         inkscape:connector-curvature="0" />
      <path
         style="font-style:normal;font-variant:normal;font-weight:normal;font-stretch:normal;letter-spacing:normal;word-spacing:normal;text-anchor:start;fill:#000000;fill-opacity:1;fill-rule:nonzero;stroke:#000000;stroke-width:0;stroke-linecap:butt;stroke-linejoin:miter;stroke-miterlimit:10.43299961;stroke-dasharray:none;stroke-dashoffset:0;stroke-opacity:1"
         inkscape:connector-curvature="0"
         d="m 280.07005,787.59175 13.37491,0 0,12.49992 0.25,0 c 1.62499,-6.87495 10.12493,-14.24991 18.87488,-14.24991 3.24998,0 4.12497,0.25 5.37496,0.375 l 0,13.74991 c -1.99998,-0.24999 -4.12497,-0.62499 -6.12496,-0.62499 -9.74993,0 -17.49988,7.87495 -17.49988,22.12111 l 0,30.75105 -14.24991,0 z"
         id="path4157" />
      <path
         style="font-style:normal;font-variant:normal;font-weight:normal;font-stretch:normal;letter-spacing:normal;word-spacing:normal;text-anchor:start;fill:#000000;fill-opacity:1;fill-rule:nonzero;stroke:#000000;stroke-width:0;stroke-linecap:butt;stroke-linejoin:miter;stroke-miterlimit:10.43299961;stroke-dasharray:none;stroke-dashoffset:0;stroke-opacity:1"
         inkscape:connector-curvature="0"
         d="m 335.31969,831.46272 0.0875,0.7575 0.1125,0.72874 0.15,0.6975 0.175,0.66874 0.2125,0.63875 0.2375,0.61125 0.2625,0.58249 0.28749,0.55375 0.3125,0.5275 0.35,0.49874 0.3625,0.47375 0.38749,0.44625 0.4125,0.42124 0.4375,0.39625 0.4625,0.37 0.47499,0.34625 0.5,0.3225 0.525,0.29749 0.53749,0.275 0.55,0.2525 0.575,0.22875 0.58749,0.2075 0.6,0.185 0.62499,0.16499 0.625,0.14375 0.65,0.1225 0.66249,0.1025 0.675,0.0838 0.67499,0.0638 0.7,0.045 0.69999,0.0275 0.7125,0.009 c 5.36247,0 14.73741,-1.12374 14.37491,-8.50119 -0.375,-7.49996 -10.74993,-8.3737 -21.12487,-10.74744 -10.49993,-2.25123 -20.74986,-6.00121 -20.74986,-19.12237 0,-14.12491 15.2499,-18.49989 26.99982,-18.49989 13.24992,0 25.23734,5.49997 26.99983,19.87488 l -14.8874,0 c -1.25,-6.74996 -6.87496,-8.62495 -13.12492,-8.62495 -4.11247,0 -11.73743,1 -11.73743,6.62496 0,6.99996 10.48744,7.99995 20.99987,10.37493 10.37493,2.37124 20.87487,6.12121 20.87487,18.86988 0,15.37615 -15.4999,21.00112 -28.88732,21.00112 -16.23739,0 -28.36232,-7.2512 -28.61232,-22.49986 z"
         id="path4159" />
      <polygon
         transform="matrix(1.249992,0,0,-1.249992,-361.07585,941.29077)"
         style="font-style:normal;font-variant:normal;font-weight:normal;font-stretch:normal;letter-spacing:normal;word-spacing:normal;text-anchor:start;fill:#000000;fill-opacity:1;fill-rule:nonzero;stroke:#000000;stroke-width:0;stroke-linecap:butt;stroke-linejoin:miter;stroke-miterlimit:10.43299961;stroke-dasharray:none;stroke-dashoffset:0;stroke-opacity:1"
         points="612.52,131.86 612.52,142.66 601.11,142.66 601.11,131.86 "
         id="polygon4161" />
      <polygon
         transform="matrix(1.249992,0,0,-1.249992,-361.07585,941.29077)"
         style="font-style:normal;font-variant:normal;font-weight:normal;font-stretch:normal;letter-spacing:normal;word-spacing:normal;text-anchor:start;fill:#000000;fill-opacity:1;fill-rule:nonzero;stroke:#000000;stroke-width:0;stroke-linecap:butt;stroke-linejoin:miter;stroke-miterlimit:10.43299961;stroke-dasharray:none;stroke-dashoffset:0;stroke-opacity:1"
         points="612.52,71.262 612.52,122.96 601.11,122.96 601.11,71.262 "
         id="polygon4163" />
      <path
         style="font-style:normal;font-variant:normal;font-weight:normal;font-stretch:normal;letter-spacing:normal;word-spacing:normal;text-anchor:start;fill:#000000;fill-opacity:1;fill-rule:nonzero;stroke:#000000;stroke-width:0;stroke-linecap:butt;stroke-linejoin:miter;stroke-miterlimit:10.43299961;stroke-dasharray:none;stroke-dashoffset:0;stroke-opacity:1"
         inkscape:connector-curvature="0"
         d="m 414.05669,787.59175 10.76243,0 0,-19.37487 14.23741,0 0,19.37487 12.87492,0 0,10.62494 -12.87492,0 0,34.49602 c 0,5.87372 0.5125,8.8762 6.87496,8.8762 2.01248,0 4.01247,0 5.99996,-0.5025 l 0,11.00118 c -3.12498,0.24875 -6.11246,0.75125 -9.23744,0.75125 -14.88741,0 -17.63739,-5.75122 -17.87489,-16.50365 l 0,-38.1185 -10.76243,0 z"
         id="path4165" />
      <polygon
         transform="matrix(1.249992,0,0,-1.249992,-361.07585,941.29077)"
         style="font-style:normal;font-variant:normal;font-weight:normal;font-stretch:normal;letter-spacing:normal;word-spacing:normal;text-anchor:start;fill:#000000;fill-opacity:1;fill-rule:nonzero;stroke:#000000;stroke-width:0;stroke-linecap:butt;stroke-linejoin:miter;stroke-miterlimit:10.43299961;stroke-dasharray:none;stroke-dashoffset:0;stroke-opacity:1"
         points="678.02,131.16 678.02,141.96 666.61,141.96 666.61,131.16 "
         id="polygon4169" />
      <polygon
         transform="matrix(1.249992,0,0,-1.249992,-361.07585,941.29077)"
         style="font-style:normal;font-variant:normal;font-weight:normal;font-stretch:normal;letter-spacing:normal;word-spacing:normal;text-anchor:start;fill:#000000;fill-opacity:1;fill-rule:nonzero;stroke:#000000;stroke-width:0;stroke-linecap:butt;stroke-linejoin:miter;stroke-miterlimit:10.43299961;stroke-dasharray:none;stroke-dashoffset:0;stroke-opacity:1"
         points="695.22,131.16 695.22,141.96 683.81,141.96 683.81,131.16 "
         id="polygon4171" />
      <path
         d="m 502.55612,830.46148 0,0.4175 -0.025,0.40874 -0.0375,0.40125 -0.0375,0.3925 -0.0625,0.385 -0.075,0.37624 -0.18749,0.72875 -0.2375,0.69624 -0.275,0.66625 -0.3125,0.63375 -0.3625,0.60374 -0.39999,0.575 -0.4375,0.54375 -0.4625,0.51499 -0.5,0.4875 -0.52499,0.4575 -0.55,0.43124 -0.57499,0.40375 -0.5875,0.37625 -0.6125,0.35 -0.62499,0.32499 -0.65,0.29875 -0.64999,0.27375 -0.6625,0.24875 -0.6625,0.22625 -0.67499,0.20125 -0.675,0.17875 -0.66249,0.15499 -0.675,0.13375 -0.66249,0.1125 -0.65,0.09 -0.65,0.0688 -0.62499,0.05 -0.6125,0.0287 -0.59999,0.01 c -4.99997,0 -13.12492,-1.87499 -13.12492,-8.25245 0,-7.49995 5.51246,-9.74618 11.62492,-10.74743 6.24996,-1.12749 13.12492,-0.99999 17.49989,-3.87622 z m 14.24991,-25.86984 -0.0375,-1.24999 -0.1125,-1.21249 -0.1875,-1.14999 -0.24999,-1.11249 -0.325,-1.05 -0.3875,-1.01249 -0.45,-0.975 -0.51249,-0.91249 -0.575,-0.88749 -0.6125,-0.825 -0.67499,-0.78749 -0.725,-0.75 -0.77499,-0.69999 -0.8125,-0.6625 -0.86249,-0.625 -0.9,-0.57499 -0.93749,-0.5375 -0.96249,-0.5 -1,-0.46249 -1.03749,-0.425 -1.04999,-0.3875 -1.0875,-0.35 -1.09999,-0.31249 -1.12499,-0.275 -1.1375,-0.25 -1.16249,-0.2 -1.16249,-0.175 -1.17499,-0.15 -1.175,-0.1 -1.18749,-0.075 -1.18749,-0.05 -1.18749,-0.0125 c -14.23741,0 -28.37482,4.87497 -29.37481,21.49987 l 14.2624,0 c 0.625,-6.99996 6.24996,-10.24994 14.23741,-10.24994 5.76247,0 13.37492,1.37499 13.37492,8.74995 0,8.37494 -9.12494,7.24995 -19.37488,9.12494 -11.98742,1.37374 -24.86234,3.99622 -24.86234,20.11862 0,12.62742 10.48743,18.87738 22.11236,18.87738 7.63745,0 16.74989,-2.37374 22.37486,-7.8762 1.13749,5.87371 5.26246,7.8762 10.99993,7.8762 2.38748,0 6.87495,-0.875 8.99994,-1.62624 l 0,-9.87369 c -1.49999,0.25 -2.61249,0.25 -3.48748,0.25 -2.63748,0 -3.38748,-1.37749 -3.38748,-4.87372 z"
         style="font-style:normal;font-variant:normal;font-weight:normal;font-stretch:normal;letter-spacing:normal;word-spacing:normal;text-anchor:start;fill:#000000;fill-opacity:1;fill-rule:nonzero;stroke:#000000;stroke-width:0;stroke-linecap:butt;stroke-linejoin:miter;stroke-miterlimit:10.43299961;stroke-dasharray:none;stroke-dashoffset:0;stroke-opacity:1"
         id="path4173"
         inkscape:connector-curvature="0" />
      <path
         style="font-style:normal;font-variant:normal;font-weight:normal;font-stretch:normal;letter-spacing:normal;word-spacing:normal;text-anchor:start;fill:#000000;fill-opacity:1;fill-rule:nonzero;stroke:#000000;stroke-width:0;stroke-linecap:butt;stroke-linejoin:miter;stroke-miterlimit:10.43299961;stroke-dasharray:none;stroke-dashoffset:0;stroke-opacity:1"
         inkscape:connector-curvature="0"
         d="m 526.18097,787.59175 10.74993,0 0,-19.37487 14.24991,0 0,19.37487 12.87492,0 0,10.62494 -12.87492,0 0,34.49602 c 0,5.87372 0.5125,8.8762 6.87496,8.8762 1.99998,0 4.01247,0 5.99996,-0.5025 l 0,11.00118 c -3.12498,0.24875 -6.11246,0.75125 -9.23744,0.75125 -14.88741,0 -17.63739,-5.75122 -17.88739,-16.50365 l 0,-38.1185 -10.74993,0 z"
         id="path4175" />
      <path
         d="m 627.69282,811.5916 27.61233,0 c 9.51243,0 14.9999,4.99747 14.9999,13.74741 0,8.99869 -5.48747,14.12116 -14.9999,14.12116 l -27.61233,0 z m -15.6249,40.62224 40.98724,0 c 23.12485,0 32.87479,-10.87868 32.87479,-24.87734 0,-12.11992 -5.87496,-20.61987 -16.73739,-22.99485 l 0,-0.25 c 8.12494,-3.49998 12.73741,-9.99994 12.73741,-18.99988 0,-14.87491 -10.48743,-22.12486 -26.48733,-22.12486 l -43.37472,0 z m 15.6249,-76.49701 25.48734,0 c 8.51244,0 13.12491,3.24998 13.12491,12.24992 0,7.99995 -5.62496,12.37492 -13.12491,12.37492 l -25.48734,0 z"
         style="font-style:normal;font-variant:normal;font-weight:normal;font-stretch:normal;letter-spacing:normal;word-spacing:normal;text-anchor:start;fill:#000000;fill-opacity:1;fill-rule:nonzero;stroke:#000000;stroke-width:0;stroke-linecap:butt;stroke-linejoin:miter;stroke-miterlimit:10.43299961;stroke-dasharray:none;stroke-dashoffset:0;stroke-opacity:1"
         id="path4181"
         inkscape:connector-curvature="0" />
      <path
         style="font-style:normal;font-variant:normal;font-weight:normal;font-stretch:normal;letter-spacing:normal;word-spacing:normal;text-anchor:start;fill:#000000;fill-opacity:1;fill-rule:nonzero;stroke:#000000;stroke-width:0;stroke-linecap:butt;stroke-linejoin:miter;stroke-miterlimit:10.43299961;stroke-dasharray:none;stroke-dashoffset:0;stroke-opacity:1"
         inkscape:connector-curvature="0"
         d="m 698.56737,787.59175 13.36241,0 0,12.49992 0.25,0 c 1.62499,-6.87495 10.13744,-14.24991 18.88738,-14.24991 3.23748,0 4.11247,0.25 5.36247,0.375 l 0,13.74991 c -1.99999,-0.24999 -4.11248,-0.62499 -6.12496,-0.62499 -9.74994,0 -17.49989,7.87495 -17.49989,22.12111 l 0,30.75105 -14.23741,0 z"
         id="path4183" />
      <path
         d="m 751.95453,814.21658 0.05,-0.89999 0.1,-0.8875 0.12499,-0.86249 0.1625,-0.84999 0.1875,-0.8375 0.2375,-0.82499 0.2625,-0.8 0.3,-0.77499 0.3375,-0.7625 0.36249,-0.73749 0.3875,-0.725 0.425,-0.68749 0.46249,-0.675 0.475,-0.6375 0.525,-0.62499 0.53749,-0.5875 0.575,-0.5625 0.5875,-0.53749 0.62499,-0.5 0.65,-0.475 0.675,-0.43749 0.71249,-0.4125 0.725,-0.3625 0.73749,-0.35 0.775,-0.29999 0.79999,-0.2625 0.8125,-0.225 0.83749,-0.1875 0.86249,-0.15 0.875,-0.1 0.89999,-0.075 0.9125,-0.0125 c 9.62494,0 15.7499,8.12495 16.24989,17.12489 z m 47.49969,9.36994 0.175,-1.81249 0.1,-1.80498 0,-1.79124 -0.075,-1.77624 -0.15,-1.75999 -0.2375,-1.73749 -0.31249,-1.71249 -0.4,-1.67499 -0.475,-1.64999 -0.55,-1.62499 -0.61249,-1.57499 -0.7,-1.53749 -0.76249,-1.49999 -0.8375,-1.43749 -0.91249,-1.39999 -0.97499,-1.34999 -1.0375,-1.28749 -1.09999,-1.22499 -1.17499,-1.1625 -1.2375,-1.08749 -1.28749,-1.03749 -1.36249,-0.95 -1.41249,-0.87499 -1.46249,-0.8 -1.53749,-0.72499 -1.57499,-0.625 -1.63749,-0.54999 -1.68749,-0.45 -1.74999,-0.3625 -1.78749,-0.25 -1.83748,-0.1625 -1.88749,-0.05 c -19.24988,0 -31.2498,15.7499 -31.2498,34.12104 0,19.87362 11.37492,33.99978 31.6248,33.99978 14.1249,0 26.12483,-7.8762 29.24981,-22.00236 l -13.49992,0 c -2.49998,7.1287 -7.49995,10.75243 -15.74989,10.75243 -11.87493,0 -17.37489,-8.99994 -17.37489,-19.12613 z"
         style="font-style:normal;font-variant:normal;font-weight:normal;font-stretch:normal;letter-spacing:normal;word-spacing:normal;text-anchor:start;fill:#000000;fill-opacity:1;fill-rule:nonzero;stroke:#000000;stroke-width:0;stroke-linecap:butt;stroke-linejoin:miter;stroke-miterlimit:10.43299961;stroke-dasharray:none;stroke-dashoffset:0;stroke-opacity:1"
         id="path4187"
         inkscape:connector-curvature="0" />
      <path
         style="font-style:normal;font-variant:normal;font-weight:normal;font-stretch:normal;letter-spacing:normal;word-spacing:normal;text-anchor:start;fill:#000000;fill-opacity:1;fill-rule:nonzero;stroke:#000000;stroke-width:0;stroke-linecap:butt;stroke-linejoin:miter;stroke-miterlimit:10.43299961;stroke-dasharray:none;stroke-dashoffset:0;stroke-opacity:1"
         inkscape:connector-curvature="0"
         d="m 810.82915,787.59175 13.49991,0 0,8.99995 0.375,0 c 4.24997,-6.37496 9.62494,-10.74994 19.87487,-10.74994 7.87495,0 15.24991,3.37498 18.12489,10.74994 4.74997,-6.62496 10.87493,-10.74994 20.24987,-10.74994 13.58741,0 21.58736,5.99997 21.58736,21.74987 l 0,44.62221 -14.24991,0 0,-37.74726 c 0,-10.24993 -0.62499,-17.37489 -11.71242,-17.37489 -9.62494,0 -13.74992,6.37496 -13.74992,17.24989 l 0,37.87226 -14.2499,0 0,-41.49723 c 0,-8.87495 -2.74999,-13.62492 -11.37493,-13.62492 -7.37495,0 -14.12491,5.99996 -14.12491,16.7499 l 0,38.37225 -14.24991,0 z"
         id="path4189" />
      <path
         d="m 931.16588,814.21658 0.125,-0.89999 0,-0.8875 0.125,-0.86249 0.25,-0.84999 0.125,-0.8375 0.24999,-0.82499 0.25,-0.8 0.375,-0.77499 0.25,-0.7625 0.375,-0.73749 0.37499,-0.725 0.5,-0.68749 0.375,-0.675 0.49999,-0.6375 0.5,-0.62499 0.625,-0.5875 0.49999,-0.5625 0.625,-0.53749 0.625,-0.5 0.62499,-0.475 0.75,-0.43749 0.62499,-0.4125 0.75,-0.3625 0.74999,-0.35 0.75,-0.29999 0.87499,-0.2625 0.75,-0.225 0.87499,-0.1875 0.875,-0.15 0.87499,-0.1 0.875,-0.075 0.87499,-0.0125 c 9.62494,0 15.7499,8.12495 16.2499,17.12489 z m 47.4997,9.36994 0.24999,-1.81249 0,-1.80498 0.125,-1.79124 -0.125,-1.77624 -0.125,-1.75999 -0.24999,-1.73749 -0.375,-1.71249 -0.375,-1.67499 -0.5,-1.64999 -0.49999,-1.62499 -0.625,-1.57499 -0.74999,-1.53749 -0.75,-1.49999 -0.74999,-1.43749 -1,-1.39999 -0.87499,-1.34999 -1.12499,-1.28749 -1.125,-1.22499 -1.12499,-1.1625 -1.24999,-1.08749 -1.24999,-1.03749 -1.375,-0.95 -1.37499,-0.87499 -1.49999,-0.8 -1.49999,-0.72499 -1.62499,-0.625 -1.62499,-0.54999 -1.74999,-0.45 -1.74998,-0.3625 -1.74999,-0.25 -1.87499,-0.1625 -1.87499,-0.05 c -19.24988,0 -31.2498,15.7499 -31.2498,34.12104 0,19.87362 11.37493,33.99978 31.6248,33.99978 14.12491,0 26.12483,-7.8762 29.24981,-22.00236 l -13.49991,0 c -2.49999,7.1287 -7.49995,10.75243 -15.7499,10.75243 -11.87493,0 -17.37489,-8.99994 -17.37489,-19.12613 z"
         style="font-style:normal;font-variant:normal;font-weight:normal;font-stretch:normal;letter-spacing:normal;word-spacing:normal;text-anchor:start;fill:#000000;fill-opacity:1;fill-rule:nonzero;stroke:#000000;stroke-width:0;stroke-linecap:butt;stroke-linejoin:miter;stroke-miterlimit:10.43299961;stroke-dasharray:none;stroke-dashoffset:0;stroke-opacity:1"
         id="path4193"
         inkscape:connector-curvature="0" />
      <path
         style="font-style:normal;font-variant:normal;font-weight:normal;font-stretch:normal;letter-spacing:normal;word-spacing:normal;text-anchor:start;fill:#000000;fill-opacity:1;fill-rule:nonzero;stroke:#000000;stroke-width:0;stroke-linecap:butt;stroke-linejoin:miter;stroke-miterlimit:10.43299961;stroke-dasharray:none;stroke-dashoffset:0;stroke-opacity:1"
         inkscape:connector-curvature="0"
         d="m 990.0405,787.59175 13.4999,0 0,9.49994 0.25,0.25 c 4.25,-7.12495 11.6249,-11.49993 20.1249,-11.49993 13.9999,0 22.8748,7.49996 22.8748,21.99986 l 0,44.37222 -14.2499,0 0,-40.62224 c -0.25,-10.12494 -4.2499,-14.49991 -12.6249,-14.49991 -9.4999,0 -15.6249,7.49995 -15.6249,16.99989 l 0,38.12226 -14.2499,0 z"
         id="path4195" />
      <path
         style="font-style:normal;font-variant:normal;font-weight:normal;font-stretch:normal;letter-spacing:normal;word-spacing:normal;text-anchor:start;fill:#e60033;fill-opacity:1;fill-rule:nonzero;stroke:#e60033;stroke-width:0;stroke-linecap:butt;stroke-linejoin:miter;stroke-miterlimit:10.43299961;stroke-dasharray:none;stroke-dashoffset:0;stroke-opacity:1"
         inkscape:connector-curvature="0"
         d="m -271.92642,808.26662 0.0575,2.28749 0.17375,2.26248 0.28625,2.21249 0.39624,2.18373 0.5025,2.13874 0.6075,2.09624 0.70874,2.04998 0.80625,1.99999 0.90249,1.94874 0.99374,1.89499 1.08375,1.83748 1.16874,1.77874 1.25374,1.71624 1.33249,1.65249 1.40999,1.58499 1.485,1.51624 1.55624,1.44374 1.62373,1.36874 1.68999,1.2925 1.75249,1.21124 1.81124,1.12999 1.86749,1.04499 1.92249,0.9575 1.97123,0.86874 2.01999,0.775 2.06374,0.67999 2.10498,0.5825 2.14499,0.4825 2.17749,0.37874 2.21248,0.275 2.24999,0.16625 2.26248,0.0562 c 24.54985,0 44.56222,-19.29738 44.56222,-43.87472 l 0,-112.14928 -22.29986,0 0,112.14928 c 0,12.28742 -9.96243,21.60861 -22.26236,21.60861 -11.91367,0 -22.30485,-9.69243 -22.30985,-21.60861 l 0,-67.48707 -22.28986,0 z"
         id="path4197" />
      <polygon
         transform="matrix(1.249992,0,0,-1.249992,-361.07585,941.29077)"
         style="font-style:normal;font-variant:normal;font-weight:normal;font-stretch:normal;letter-spacing:normal;word-spacing:normal;text-anchor:start;fill:#e60033;fill-opacity:1;fill-rule:nonzero;stroke:#e60033;stroke-width:0;stroke-linecap:butt;stroke-linejoin:miter;stroke-miterlimit:10.43299961;stroke-dasharray:none;stroke-dashoffset:0;stroke-opacity:1"
         points="17.832,178.3 17.832,196.14 0,196.14 0,178.3 "
         id="polygon4199" />
      <polygon
         transform="matrix(1.249992,0,0,-1.249992,-361.07585,941.29077)"
         style="font-style:normal;font-variant:normal;font-weight:normal;font-stretch:normal;letter-spacing:normal;word-spacing:normal;text-anchor:start;fill:#e60033;fill-opacity:1;fill-rule:nonzero;stroke:#e60033;stroke-width:0;stroke-linecap:butt;stroke-linejoin:miter;stroke-miterlimit:10.43299961;stroke-dasharray:none;stroke-dashoffset:0;stroke-opacity:1"
         points="35.66,160.47 35.66,178.3 17.832,178.3 17.832,160.47 "
         id="polygon4201" />
      <polygon
         transform="matrix(1.249992,0,0,-1.249992,-361.07585,941.29077)"
         style="font-style:normal;font-variant:normal;font-weight:normal;font-stretch:normal;letter-spacing:normal;word-spacing:normal;text-anchor:start;fill:#e60033;fill-opacity:1;fill-rule:nonzero;stroke:#e60033;stroke-width:0;stroke-linecap:butt;stroke-linejoin:miter;stroke-miterlimit:10.43299961;stroke-dasharray:none;stroke-dashoffset:0;stroke-opacity:1"
         points="53.492,178.3 53.492,196.14 35.66,196.14 35.66,178.3 "
         id="polygon4203" />
      <polygon
         transform="matrix(1.249992,0,0,-1.249992,-361.07585,941.29077)"
         style="font-style:normal;font-variant:normal;font-weight:normal;font-stretch:normal;letter-spacing:normal;word-spacing:normal;text-anchor:start;fill:#e60033;fill-opacity:1;fill-rule:nonzero;stroke:#e60033;stroke-width:0;stroke-linecap:butt;stroke-linejoin:miter;stroke-miterlimit:10.43299961;stroke-dasharray:none;stroke-dashoffset:0;stroke-opacity:1"
         points="89.152,178.3 89.152,196.14 71.32,196.14 71.32,178.3 "
         id="polygon4205" />
      <polygon
         transform="matrix(1.249992,0,0,-1.249992,-361.07585,941.29077)"
         style="font-style:normal;font-variant:normal;font-weight:normal;font-stretch:normal;letter-spacing:normal;word-spacing:normal;text-anchor:start;fill:#e60033;fill-opacity:1;fill-rule:nonzero;stroke:#e60033;stroke-width:0;stroke-linecap:butt;stroke-linejoin:miter;stroke-miterlimit:10.43299961;stroke-dasharray:none;stroke-dashoffset:0;stroke-opacity:1"
         points="71.32,160.47 71.32,178.3 53.492,178.3 53.492,160.47 "
         id="polygon4207" />
      <path
         style="font-style:normal;font-variant:normal;font-weight:normal;font-stretch:normal;letter-spacing:normal;word-spacing:normal;text-anchor:start;fill:#e60033;fill-opacity:1;fill-rule:nonzero;stroke:#e60033;stroke-width:0;stroke-linecap:butt;stroke-linejoin:miter;stroke-miterlimit:10.43299961;stroke-dasharray:none;stroke-dashoffset:0;stroke-opacity:1"
         inkscape:connector-curvature="0"
         d="m -93.627562,696.17984 0,112.08678 c 0,73.58578 -59.924618,133.02415 -133.586648,133.02415 -73.65203,0 -133.86164,-59.42837 -133.86164,-133.02415 l 0,-67.56207 22.30486,0.05 -0.015,67.51207 c 0,61.31586 50.17093,110.78804 111.57178,110.78804 61.38711,0 111.31179,-49.47218 111.31179,-110.78804 l 0,-112.14928 z"
         id="path4209" />
      <path
         style="font-style:normal;font-variant:normal;font-weight:normal;font-stretch:normal;letter-spacing:normal;word-spacing:normal;text-anchor:start;fill:#e60033;fill-opacity:1;fill-rule:nonzero;stroke:#e60033;stroke-width:0;stroke-linecap:butt;stroke-linejoin:miter;stroke-miterlimit:10.43299961;stroke-dasharray:none;stroke-dashoffset:0;stroke-opacity:1"
         inkscape:connector-curvature="0"
         d="m -160.47713,696.11734 0,112.14928 c 0,36.83852 -30.04981,66.15958 -66.89958,66.15958 -36.86851,0 -66.83457,-29.32106 -66.83457,-66.15958 l 0,-67.59957 -22.28986,0 0,67.59957 c 0,49.12344 39.98975,88.44944 89.12443,88.44944 49.13719,0 89.17443,-39.326 89.17443,-88.44944 l 0,-112.13678 z"
         id="path4211" />
    </g>
  </g>
</svg>
