<svg id="Ebene_1" data-name="Ebene 1" xmlns="http://www.w3.org/2000/svg" viewBox="0 0 221.33 52.45"><defs><style>.cls-1{fill:#7c7c81;}.cls-2{fill:#004289;}</style></defs><title>WIND IO _ LOGO_CMYK</title><polygon class="cls-1" points="90.72 16.15 84.25 42.64 77.2 16.15 71.87 16.15 64.73 42.63 58.49 16.15 53.23 16.15 61.88 49.9 67.03 49.9 74.42 23.05 81.72 49.9 86.87 49.9 95.89 16.15 90.72 16.15"/><rect class="cls-1" x="99.38" y="16.15" width="5.14" height="33.75"/><polygon class="cls-1" points="133.26 16.15 133.26 42.16 116.36 16.15 111.12 16.15 111.12 49.9 116.03 49.9 116.03 24.16 132.78 49.9 138.17 49.9 138.17 16.15 133.26 16.15"/><path class="cls-1" d="M270.88,135.54c-2.81-2.64-6.84-4-12-4h-11.7v33.75h11.7a20.15,20.15,0,0,0,7.25-1.18,12.89,12.89,0,0,0,5.09-3.45,14.14,14.14,0,0,0,2.95-5.55,27.41,27.41,0,0,0,.94-7.48C275.11,142.27,273.68,138.19,270.88,135.54Zm-9.82,25.21a16.63,16.63,0,0,1-1.81.11h-6.93V136h7a13.26,13.26,0,0,1,5,.82,8.11,8.11,0,0,1,3.25,2.39,9.88,9.88,0,0,1,1.82,3.83,21.61,21.61,0,0,1,.57,5.2,18.79,18.79,0,0,1-.61,5.1,12.44,12.44,0,0,1-1.55,3.47,8.2,8.2,0,0,1-2.09,2.17,11.08,11.08,0,0,1-2.39,1.23A10,10,0,0,1,261.06,160.75Z" transform="translate(-102.64 -115.41)"/><rect class="cls-2" x="180.18" y="16.15" width="5.14" height="33.75"/><path class="cls-2" d="M323,141.83a17,17,0,0,0-3-5.65,15.15,15.15,0,0,0-5.08-3.94,17.64,17.64,0,0,0-14.1,0,15,15,0,0,0-5.07,3.94,16.69,16.69,0,0,0-3.05,5.65,22.1,22.1,0,0,0,0,13.21,16.69,16.69,0,0,0,3.05,5.65,14.71,14.71,0,0,0,5.07,3.92,18,18,0,0,0,14.1,0,14.84,14.84,0,0,0,5.08-3.92,17,17,0,0,0,3-5.65,22.1,22.1,0,0,0,0-13.21Zm-15.18,19.82a10.43,10.43,0,0,1-5-1.13,10.18,10.18,0,0,1-3.43-3,13.16,13.16,0,0,1-2-4.25,18.79,18.79,0,0,1,0-9.65,13.16,13.16,0,0,1,2-4.25,10.18,10.18,0,0,1,3.43-3,11.63,11.63,0,0,1,10,0,10.09,10.09,0,0,1,3.43,3,13,13,0,0,1,2,4.25,18.51,18.51,0,0,1,0,9.65,13,13,0,0,1-2,4.25,10.09,10.09,0,0,1-3.43,3A10.43,10.43,0,0,1,307.78,161.65Z" transform="translate(-102.64 -115.41)"/><path class="cls-2" d="M104.39,124.42l1.49-.87L114.13,138l-10.59,12.6-.9-1.65,6.58-10.6Zm25.28,4.8,17,.23v-14H120.87Zm-5.79,2.95L118.08,117V140.3Zm4.76,2.53-10.56,11.06v22.1h7.54V143.11l3.7-3.87v28.62h17.33V132.28Zm-1.17-4.43a1.72,1.72,0,1,0,1.72,1.71A1.72,1.72,0,0,0,127.47,130.27Zm-13.25,12.84-3.61,4v18h3.61Z" transform="translate(-102.64 -115.41)"/></svg>